<?xml version="1.0" encoding="UTF-8" standalone="no"?>
<svg width="26px" height="26px" viewBox="0 0 26 26" version="1.1" xmlns="http://www.w3.org/2000/svg" xmlns:xlink="http://www.w3.org/1999/xlink" xmlns:sketch="http://www.bohemiancoding.com/sketch/ns">
    <!-- Generator: Sketch 3.2.2 (9983) - http://www.bohemiancoding.com/sketch -->
    <title>Slice 1</title>
    <desc>Created with Sketch.</desc>
    <defs></defs>
    <g id="Page-1" stroke="none" stroke-width="1" fill="none" fill-rule="evenodd" sketch:type="MSPage">
        <g id="Rectangle-1" sketch:type="MSLayerGroup" fill="#000000">
            <path d="M0,1.99700466 C0,0.89408944 0.894978851,0 1.99700466,0 L24.0029953,0 C25.1059106,0 26,0.894978851 26,1.99700466 L26,24.0029953 C26,25.1059106 25.1050211,26 24.0029953,26 L1.99700466,26 C0.89408944,26 0,25.1050211 0,24.0029953 L0,1.99700466 Z M19.7057292,17.6223958 L15.0833333,13 L19.7057292,8.37760417 L21.5807292,10.2526042 C21.8324653,10.5217014 22.1362847,10.5824653 22.4921875,10.4348958 C22.8307292,10.2873264 23,10.03125 23,9.66666667 L23,3.83333333 C23,3.60763889 22.9175347,3.41232639 22.7526042,3.24739583 C22.5876736,3.08246528 22.3923611,3 22.1666667,3 L16.3333333,3 C15.96875,3 15.7126736,3.17361111 15.5651042,3.52083333 C15.4175347,3.859375 15.4782986,4.15885417 15.7473958,4.41927083 L17.6223958,6.29427083 L13,10.9166667 L8.37760417,6.29427083 L10.2526042,4.41927083 C10.5217014,4.15885417 10.5824653,3.859375 10.4348958,3.52083333 C10.2873264,3.17361111 10.03125,3 9.66666667,3 L3.83333333,3 C3.60763889,3 3.41232639,3.08246528 3.24739583,3.24739583 C3.08246528,3.41232639 3,3.60763889 3,3.83333333 L3,9.66666667 C3,10.03125 3.17361111,10.2873264 3.52083333,10.4348958 C3.859375,10.5824653 4.15885417,10.5217014 4.41927083,10.2526042 L6.29427083,8.37760417 L10.9166667,13 L6.29427083,17.6223958 L4.41927083,15.7473958 C4.25434028,15.5824653 4.05902778,15.5 3.83333333,15.5 C3.72916667,15.5 3.625,15.5217014 3.52083333,15.5651042 C3.17361111,15.7126736 3,15.96875 3,16.3333333 L3,22.1666667 C3,22.3923611 3.08246528,22.5876736 3.24739583,22.7526042 C3.41232639,22.9175347 3.60763889,23 3.83333333,23 L9.66666667,23 C10.03125,23 10.2873264,22.8263889 10.4348958,22.4791667 C10.5824653,22.140625 10.5217014,21.8411458 10.2526042,21.5807292 L8.37760417,19.7057292 L13,15.0833333 L17.6223958,19.7057292 L15.7473958,21.5807292 C15.4782986,21.8411458 15.4175347,22.140625 15.5651042,22.4791667 C15.7126736,22.8263889 15.96875,23 16.3333333,23 L22.1666667,23 C22.3923611,23 22.5876736,22.9175347 22.7526042,22.7526042 C22.9175347,22.5876736 23,22.3923611 23,22.1666667 L23,16.3333333 C23,15.96875 22.8307292,15.7126736 22.4921875,15.5651042 C22.3793403,15.5217014 22.2708333,15.5 22.1666667,15.5 C21.9409722,15.5 21.7456597,15.5824653 21.5807292,15.7473958 L19.7057292,17.6223958 Z" sketch:type="MSShapeGroup"></path>
        </g>
    </g>
</svg>